sporting_grotesque_gras_greek.ufo
<glyph name="eight" format="1">
  <advance width="880"/>
  <unicode hex="0038"/>
  <outline>
    <contour>
      <point x="796" y="582" type="curve" smooth="yes"/>
      <point x="796" y="707"/>
      <point x="643" y="791"/>
      <point x="440" y="791" type="curve" smooth="yes"/>
      <point x="238" y="791"/>
      <point x="84" y="697"/>
      <point x="84" y="562" type="curve" smooth="yes"/>
      <point x="84" y="427"/>
      <point x="235" y="393"/>
      <point x="250" y="390" type="curve"/>
      <point x="237" y="388"/>
      <point x="54" y="359"/>
      <point x="54" y="206" type="curve" smooth="yes"/>
      <point x="54" y="71"/>
      <point x="217" y="-13"/>
      <point x="440" y="-13" type="curve" smooth="yes"/>
      <point x="662" y="-13"/>
      <point x="826" y="81"/>
      <point x="826" y="226" type="curve" smooth="yes"/>
      <point x="826" y="375"/>
      <point x="636" y="407"/>
      <point x="629" y="408" type="curve"/>
      <point x="637" y="409"/>
      <point x="796" y="446"/>
    </contour>
    <contour>
      <point x="640" y="226" type="curve" smooth="yes"/>
      <point x="640" y="166"/>
      <point x="580" y="110"/>
      <point x="440" y="110" type="curve" smooth="yes"/>
      <point x="300" y="110"/>
      <point x="239" y="166"/>
      <point x="239" y="226" type="curve" smooth="yes"/>
      <point x="239" y="286"/>
      <point x="300" y="342"/>
      <point x="440" y="342" type="curve" smooth="yes"/>
      <point x="580" y="342"/>
      <point x="640" y="286"/>
    </contour>
    <contour>
      <point x="270" y="562" type="curve" smooth="yes"/>
      <point x="270" y="622"/>
      <point x="330" y="668"/>
      <point x="440" y="668" type="curve" smooth="yes"/>
      <point x="550" y="668"/>
      <point x="611" y="622"/>
      <point x="611" y="562" type="curve" smooth="yes"/>
      <point x="611" y="502"/>
      <point x="550" y="456"/>
      <point x="440" y="456" type="curve" smooth="yes"/>
      <point x="330" y="456"/>
      <point x="270" y="502"/>
    </contour>
  </outline>
</glyph>
<glyph name="less" format="1">
  <advance width="650"/>
  <unicode hex="003C"/>
  <outline>
    <contour>
      <point x="75" y="287" type="line"/>
      <point x="75" y="235" type="line"/>
      <point x="528" y="-14" type="line"/>
      <point x="554" y="31" type="line"/>
      <point x="136" y="261" type="line"/>
      <point x="555" y="491" type="line"/>
      <point x="529" y="537" type="line"/>
    </contour>
    <contour>
      <point x="276" y="568" type="move" name="_top"/>
    </contour>
  </outline>
</glyph>
<glyph name="E" format="1">
  <advance width="815"/>
  <unicode hex="0045"/>
  <outline>
    <contour>
      <point x="90" y="0" type="line"/>
      <point x="775" y="0" type="line"/>
      <point x="775" y="110" type="line"/>
      <point x="268" y="110" type="line"/>
      <point x="268" y="333" type="line"/>
      <point x="716" y="333" type="line"/>
      <point x="716" y="442" type="line"/>
      <point x="268" y="442" type="line"/>
      <point x="268" y="668" type="line"/>
      <point x="745" y="668" type="line"/>
      <point x="745" y="777" type="line"/>
      <point x="90" y="777" type="line"/>
    </contour>
    <contour>
      <point x="470" y="855" type="move" name="top"/>
    </contour>
  </outline>
</glyph>
<glyph name="H" format="1">
  <advance width="1006"/>
  <unicode hex="0048"/>
  <outline>
    <contour>
      <point x="738" y="0" type="line"/>
      <point x="916" y="0" type="line"/>
      <point x="916" y="777" type="line"/>
      <point x="738" y="777" type="line"/>
      <point x="738" y="442" type="line"/>
      <point x="268" y="442" type="line"/>
      <point x="268" y="777" type="line"/>
      <point x="90" y="777" type="line"/>
      <point x="90" y="0" type="line"/>
      <point x="268" y="0" type="line"/>
      <point x="268" y="333" type="line"/>
      <point x="738" y="333" type="line"/>
    </contour>
  </outline>
</glyph>
<glyph name="M" format="1">
  <advance width="1312"/>
  <unicode hex="004D"/>
  <outline>
    <contour>
      <point x="656" y="170" type="line"/>
      <point x="397" y="777" type="line"/>
      <point x="90" y="777" type="line"/>
      <point x="90" y="0" type="line"/>
      <point x="268" y="0" type="line"/>
      <point x="268" y="668" type="line"/>
      <point x="569" y="0" type="line"/>
      <point x="743" y="0" type="line"/>
      <point x="1044" y="668" type="line"/>
      <point x="1044" y="0" type="line"/>
      <point x="1222" y="0" type="line"/>
      <point x="1222" y="777" type="line"/>
      <point x="915" y="777" type="line"/>
    </contour>
  </outline>
</glyph>
<glyph name="N" format="1">
  <advance width="1007"/>
  <unicode hex="004E"/>
  <outline>
    <contour>
      <point x="917" y="777" type="line"/>
      <point x="739" y="777" type="line"/>
      <point x="739" y="170" type="line"/>
      <point x="333" y="777" type="line"/>
      <point x="90" y="777" type="line"/>
      <point x="90" y="0" type="line"/>
      <point x="268" y="0" type="line"/>
      <point x="268" y="607" type="line"/>
      <point x="674" y="0" type="line"/>
      <point x="917" y="0" type="line"/>
    </contour>
  </outline>
</glyph>
<glyph name="P" format="1">
  <advance width="862"/>
  <unicode hex="0050"/>
  <outline>
    <contour>
      <point x="90" y="777" type="line"/>
      <point x="456" y="777" type="line" smooth="yes"/>
      <point x="722" y="777"/>
      <point x="842" y="703"/>
      <point x="842" y="555" type="curve" smooth="yes"/>
      <point x="842" y="407"/>
      <point x="722" y="333"/>
      <point x="456" y="333" type="curve" smooth="yes"/>
      <point x="268" y="333" type="line"/>
      <point x="268" y="0" type="line"/>
      <point x="90" y="0" type="line"/>
    </contour>
    <contour>
      <point x="268" y="442" type="line"/>
      <point x="466" y="442" type="line" smooth="yes"/>
      <point x="580" y="442"/>
      <point x="657" y="475"/>
      <point x="657" y="555" type="curve" smooth="yes"/>
      <point x="657" y="635"/>
      <point x="580" y="668"/>
      <point x="466" y="668" type="curve" smooth="yes"/>
      <point x="268" y="668" type="line"/>
    </contour>
  </outline>
</glyph>
<glyph name="T" format="1">
  <advance width="882"/>
  <unicode hex="0054"/>
  <outline>
    <contour>
      <point x="10" y="668" type="line"/>
      <point x="352" y="668" type="line"/>
      <point x="352" y="0" type="line"/>
      <point x="530" y="0" type="line"/>
      <point x="530" y="668" type="line"/>
      <point x="872" y="668" type="line"/>
      <point x="872" y="777" type="line"/>
      <point x="10" y="777" type="line"/>
    </contour>
  </outline>
</glyph>
<glyph name="W" format="1">
  <advance width="1427"/>
  <unicode hex="0057"/>
  <outline>
    <contour>
      <point x="1417" y="777" type="line"/>
      <point x="1215" y="777" type="line"/>
      <point x="1014" y="170" type="line"/>
      <point x="842" y="777" type="line"/>
      <point x="585" y="777" type="line"/>
      <point x="413" y="169" type="line"/>
      <point x="212" y="777" type="line"/>
      <point x="10" y="777" type="line"/>
      <point x="301" y="0" type="line"/>
      <point x="515" y="0" type="line"/>
      <point x="713" y="668" type="line"/>
      <point x="912" y="0" type="line"/>
      <point x="1124" y="0" type="line"/>
    </contour>
  </outline>
</glyph>
<glyph name="X" format="1">
  <advance width="982"/>
  <unicode hex="0058"/>
  <outline>
    <contour>
      <point x="755" y="0" type="line"/>
      <point x="972" y="0" type="line"/>
      <point x="599" y="388" type="line"/>
      <point x="972" y="777" type="line"/>
      <point x="755" y="777" type="line"/>
      <point x="491" y="501" type="line"/>
      <point x="227" y="777" type="line"/>
      <point x="10" y="777" type="line"/>
      <point x="382" y="388" type="line"/>
      <point x="10" y="0" type="line"/>
      <point x="227" y="0" type="line"/>
      <point x="491" y="275" type="line"/>
    </contour>
  </outline>
</glyph>
<glyph name="Z" format="1">
  <advance width="818"/>
  <unicode hex="005A"/>
  <outline>
    <contour>
      <point x="798" y="110" type="line"/>
      <point x="255" y="110" type="line"/>
      <point x="798" y="658" type="line"/>
      <point x="798" y="777" type="line"/>
      <point x="20" y="777" type="line"/>
      <point x="20" y="668" type="line"/>
      <point x="563" y="668" type="line"/>
      <point x="20" y="120" type="line"/>
      <point x="20" y="0" type="line"/>
      <point x="798" y="0" type="line"/>
    </contour>
  </outline>
</glyph>
<glyph name="backslash" format="1">
  <advance width="245"/>
  <unicode hex="005C"/>
  <outline>
    <contour>
      <point x="-39" y="713" type="line" name="hr00"/>
      <point x="235" y="-110" type="line"/>
      <point x="284" y="-95" type="line"/>
      <point x="12" y="729" type="line"/>
    </contour>
  </outline>
</glyph>
<glyph name="a" format="1">
  <advance width="773"/>
  <unicode hex="0061"/>
  <outline>
    <contour>
      <point x="625" y="152" type="line" smooth="yes"/>
      <point x="624" y="121"/>
      <point x="635" y="97"/>
      <point x="665" y="97" type="curve" smooth="yes"/>
      <point x="711" y="97"/>
      <point x="740" y="147"/>
      <point x="740" y="147" type="curve"/>
      <point x="773" y="39" type="line"/>
      <point x="773" y="39"/>
      <point x="727" y="-13"/>
      <point x="640" y="-13" type="curve" smooth="yes"/>
      <point x="521" y="-13"/>
      <point x="491" y="63"/>
      <point x="491" y="175" type="curve"/>
      <point x="486" y="166"/>
      <point x="392" y="-13"/>
      <point x="220" y="-13" type="curve" smooth="yes"/>
      <point x="118" y="-13"/>
      <point x="56" y="35"/>
      <point x="56" y="119" type="curve" smooth="yes"/>
      <point x="56" y="212"/>
      <point x="165" y="319"/>
      <point x="469" y="345" type="curve"/>
      <point x="469" y="396"/>
      <point x="457" y="458"/>
      <point x="355" y="458" type="curve" smooth="yes"/>
      <point x="203" y="458"/>
      <point x="202" y="335"/>
      <point x="202" y="335" type="curve"/>
      <point x="30" y="379" type="line"/>
      <point x="30" y="379"/>
      <point x="83" y="568"/>
      <point x="363" y="568" type="curve" smooth="yes"/>
      <point x="543" y="568"/>
      <point x="638" y="472"/>
      <point x="634" y="359" type="curve"/>
    </contour>
    <contour>
      <point x="228" y="153" type="curve" smooth="yes"/>
      <point x="228" y="129"/>
      <point x="236" y="97"/>
      <point x="286" y="97" type="curve" smooth="yes"/>
      <point x="402" y="97"/>
      <point x="469" y="253"/>
      <point x="469" y="253" type="curve"/>
      <point x="469" y="292" type="line"/>
      <point x="287" y="275"/>
      <point x="228" y="206"/>
    </contour>
    <contour>
      <point x="383" y="633" type="move" name="top"/>
    </contour>
  </outline>
</glyph>
<glyph name="i" format="1">
  <advance width="345"/>
  <unicode hex="0069"/>
  <outline>
    <contour>
      <point x="90" y="0" type="line"/>
      <point x="255" y="0" type="line"/>
      <point x="255" y="555" type="line"/>
      <point x="90" y="555" type="line"/>
    </contour>
    <contour>
      <point x="90" y="650" type="line"/>
      <point x="255" y="650" type="line"/>
      <point x="255" y="777" type="line"/>
      <point x="90" y="777" type="line"/>
    </contour>
  </outline>
</glyph>
<glyph name="v" format="1">
  <advance width="748"/>
  <unicode hex="0076"/>
  <outline>
    <contour>
      <point x="738" y="555" type="line"/>
      <point x="557" y="555" type="line"/>
      <point x="374" y="146" type="line"/>
      <point x="191" y="555" type="line"/>
      <point x="10" y="555" type="line"/>
      <point x="294" y="0" type="line"/>
      <point x="454" y="0" type="line"/>
    </contour>
  </outline>
</glyph>
<glyph name="x" format="1">
  <advance width="758"/>
  <unicode hex="0078"/>
  <outline>
    <contour>
      <point x="201" y="555" type="line"/>
      <point x="10" y="555" type="line"/>
      <point x="283" y="277" type="line"/>
      <point x="10" y="0" type="line"/>
      <point x="201" y="0" type="line"/>
      <point x="379" y="180" type="line"/>
      <point x="557" y="0" type="line"/>
      <point x="748" y="0" type="line"/>
      <point x="474" y="277" type="line"/>
      <point x="748" y="555" type="line"/>
      <point x="557" y="555" type="line"/>
      <point x="379" y="374" type="line"/>
    </contour>
  </outline>
</glyph>
<glyph name="guillemotleft" format="1">
  <advance width="689"/>
  <unicode hex="00AB"/>
  <outline>
    <contour>
      <point x="30" y="277" type="line"/>
      <point x="231" y="58" type="line"/>
      <point x="359" y="58" type="line"/>
      <point x="208" y="277" type="line"/>
      <point x="359" y="496" type="line"/>
      <point x="231" y="496" type="line"/>
    </contour>
    <contour>
      <point x="330" y="277" type="line"/>
      <point x="531" y="58" type="line"/>
      <point x="659" y="58" type="line"/>
      <point x="508" y="277" type="line"/>
      <point x="659" y="496" type="line"/>
      <point x="531" y="496" type="line"/>
    </contour>
  </outline>
</glyph>
<glyph name="Egrave" format="1">
  <advance width="815"/>
  <unicode hex="00C8"/>
  <outline>
    <contour>
      <point x="90" y="0" type="line"/>
      <point x="775" y="0" type="line"/>
      <point x="775" y="110" type="line"/>
      <point x="268" y="110" type="line"/>
      <point x="268" y="333" type="line"/>
      <point x="716" y="333" type="line"/>
      <point x="716" y="442" type="line"/>
      <point x="268" y="442" type="line"/>
      <point x="268" y="668" type="line"/>
      <point x="745" y="668" type="line"/>
      <point x="745" y="777" type="line"/>
      <point x="90" y="777" type="line"/>
    </contour>
    <contour>
      <point x="213" y="1018" type="line"/>
      <point x="442" y="875" type="line"/>
      <point x="559" y="875" type="line"/>
      <point x="423" y="1018" type="line"/>
    </contour>
  </outline>
</glyph>
<glyph name="Eacute" format="1">
  <advance width="815"/>
  <unicode hex="00C9"/>
  <outline>
    <contour>
      <point x="90" y="0" type="line"/>
      <point x="775" y="0" type="line"/>
      <point x="775" y="110" type="line"/>
      <point x="268" y="110" type="line"/>
      <point x="268" y="333" type="line"/>
      <point x="716" y="333" type="line"/>
      <point x="716" y="442" type="line"/>
      <point x="268" y="442" type="line"/>
      <point x="268" y="668" type="line"/>
      <point x="745" y="668" type="line"/>
      <point x="745" y="777" type="line"/>
      <point x="90" y="777" type="line"/>
    </contour>
    <contour>
      <point x="459" y="1019" type="line"/>
      <point x="323" y="875" type="line"/>
      <point x="440" y="875" type="line"/>
      <point x="669" y="1019" type="line"/>
    </contour>
  </outline>
</glyph>
<glyph name="Icircumflex" format="1">
  <advance width="358"/>
  <unicode hex="00CE"/>
  <outline>
    <contour>
      <point x="90" y="777" type="line"/>
      <point x="90" y="0" type="line"/>
      <point x="268" y="0" type="line"/>
      <point x="268" y="777" type="line"/>
    </contour>
    <contour>
      <point x="104" y="1019" type="line"/>
      <point x="-82" y="875" type="line"/>
      <point x="15" y="875" type="line"/>
      <point x="179" y="937" type="line"/>
      <point x="343" y="875" type="line"/>
      <point x="440" y="875" type="line"/>
      <point x="254" y="1019" type="line"/>
    </contour>
  </outline>
</glyph>
<glyph name="Idieresis" format="1">
  <advance width="358"/>
  <unicode hex="00CF"/>
  <outline>
    <contour>
      <point x="90" y="777" type="line"/>
      <point x="90" y="0" type="line"/>
      <point x="268" y="0" type="line"/>
      <point x="268" y="777" type="line"/>
    </contour>
    <contour>
      <point x="-10" y="869" type="line"/>
      <point x="128" y="869" type="line"/>
      <point x="128" y="1019" type="line"/>
      <point x="-10" y="1019" type="line"/>
    </contour>
    <contour>
      <point x="230" y="869" type="line"/>
      <point x="368" y="869" type="line"/>
      <point x="368" y="1019" type="line"/>
      <point x="230" y="1019" type="line"/>
    </contour>
  </outline>
</glyph>
<glyph name="Uacute" format="1">
  <advance width="992"/>
  <unicode hex="00DA"/>
  <outline>
    <contour>
      <point x="724" y="777" type="line"/>
      <point x="724" y="324" type="line"/>
      <point x="724" y="148"/>
      <point x="638" y="110"/>
      <point x="496" y="110" type="curve" smooth="yes"/>
      <point x="354" y="110"/>
      <point x="268" y="148"/>
      <point x="268" y="324" type="curve"/>
      <point x="268" y="777" type="line"/>
      <point x="90" y="777" type="line"/>
      <point x="90" y="324" type="line"/>
      <point x="90" y="99"/>
      <point x="226" y="-13"/>
      <point x="496" y="-13" type="curve" smooth="yes"/>
      <point x="766" y="-13"/>
      <point x="902" y="99"/>
      <point x="902" y="324" type="curve"/>
      <point x="902" y="777" type="line"/>
    </contour>
    <contour>
      <point x="534" y="1019" type="line"/>
      <point x="398" y="875" type="line"/>
      <point x="515" y="875" type="line"/>
      <point x="744" y="1019" type="line"/>
    </contour>
  </outline>
</glyph>
<glyph name="icircumflex" format="1">
  <advance width="345"/>
  <unicode hex="00EE"/>
  <outline>
    <contour>
      <point x="90" y="0" type="line"/>
      <point x="255" y="0" type="line"/>
      <point x="255" y="555" type="line"/>
      <point x="90" y="555" type="line"/>
    </contour>
    <contour>
      <point x="98" y="792" type="line"/>
      <point x="-88" y="648" type="line"/>
      <point x="9" y="648" type="line"/>
      <point x="173" y="710" type="line"/>
      <point x="337" y="648" type="line"/>
      <point x="434" y="648" type="line"/>
      <point x="248" y="792" type="line"/>
    </contour>
  </outline>
</glyph>
<glyph name="idieresis" format="1">
  <advance width="345"/>
  <unicode hex="00EF"/>
  <outline>
    <contour>
      <point x="90" y="0" type="line"/>
      <point x="255" y="0" type="line"/>
      <point x="255" y="555" type="line"/>
      <point x="90" y="555" type="line"/>
    </contour>
    <contour>
      <point x="-16" y="642" type="line"/>
      <point x="122" y="642" type="line"/>
      <point x="122" y="792" type="line"/>
      <point x="-16" y="792" type="line"/>
    </contour>
    <contour>
      <point x="224" y="642" type="line"/>
      <point x="362" y="642" type="line"/>
      <point x="362" y="792" type="line"/>
      <point x="224" y="792" type="line"/>
    </contour>
  </outline>
</glyph>
<glyph name="tonos" format="1">
  <advance width="446"/>
  <unicode hex="0384"/>
  <outline>
    <contour>
      <point x="186" y="777" type="line"/>
      <point x="50" y="628" type="line"/>
      <point x="167" y="628" type="line"/>
      <point x="396" y="777" type="line"/>
    </contour>
    <contour>
      <point x="177" y="613" type="move" name="_top"/>
    </contour>
  </outline>
</glyph>
<glyph name="anoteleia" format="1">
  <advance width="298"/>
  <unicode hex="0387"/>
  <outline>
    <contour>
      <point x="60" y="405" type="line"/>
      <point x="238" y="405" type="line"/>
      <point x="238" y="555" type="line"/>
      <point x="60" y="555" type="line"/>
    </contour>
  </outline>
</glyph>
<glyph name="Alpha" format="1">
  <advance width="1063"/>
  <unicode hex="0391"/>
  <outline>
    <contour>
      <point x="861" y="0" type="line"/>
      <point x="1053" y="0" type="line"/>
      <point x="686" y="777" type="line"/>
      <point x="377" y="777" type="line"/>
      <point x="10" y="0" type="line"/>
      <point x="201" y="0" type="line"/>
      <point x="308" y="235" type="line"/>
      <point x="754" y="235" type="line"/>
    </contour>
    <contour>
      <point x="506" y="668" type="line"/>
      <point x="557" y="668" type="line"/>
      <point x="704" y="345" type="line"/>
      <point x="358" y="345" type="line"/>
    </contour>
  </outline>
</glyph>
<glyph name="Beta" format="1">
  <advance width="922"/>
  <unicode hex="0392"/>
  <outline>
    <contour>
      <point x="456" y="777" type="line" smooth="yes"/>
      <point x="722" y="777"/>
      <point x="842" y="708"/>
      <point x="842" y="560" type="curve" smooth="yes"/>
      <point x="842" y="430"/>
      <point x="713" y="405"/>
      <point x="700" y="403" type="curve"/>
      <point x="714" y="401"/>
      <point x="862" y="375"/>
      <point x="862" y="227" type="curve" smooth="yes"/>
      <point x="862" y="79"/>
      <point x="742" y="0"/>
      <point x="476" y="0" type="curve" smooth="yes"/>
      <point x="90" y="0" type="line"/>
      <point x="90" y="777" type="line"/>
    </contour>
    <contour>
      <point x="268" y="110" type="line"/>
      <point x="486" y="110" type="line" smooth="yes"/>
      <point x="600" y="110"/>
      <point x="677" y="148"/>
      <point x="677" y="228" type="curve" smooth="yes"/>
      <point x="677" y="306"/>
      <point x="604" y="346"/>
      <point x="495" y="346" type="curve" smooth="yes"/>
      <point x="268" y="346" type="line"/>
    </contour>
    <contour>
      <point x="466" y="452" type="line" smooth="yes"/>
      <point x="580" y="452"/>
      <point x="657" y="480"/>
      <point x="657" y="560" type="curve" smooth="yes"/>
      <point x="657" y="640"/>
      <point x="580" y="668"/>
      <point x="466" y="668" type="curve" smooth="yes"/>
      <point x="268" y="668" type="line"/>
      <point x="268" y="452" type="line"/>
    </contour>
  </outline>
</glyph>
<glyph name="Gamma" format="1">
  <advance width="815"/>
  <unicode hex="0393"/>
  <outline>
    <contour>
      <point x="90" y="0" type="line"/>
      <point x="268" y="0" type="line"/>
      <point x="268" y="668" type="line"/>
      <point x="745" y="668" type="line"/>
      <point x="745" y="777" type="line"/>
      <point x="90" y="777" type="line"/>
    </contour>
  </outline>
</glyph>
<glyph name="uni0394" format="1">
  <advance width="1063"/>
  <unicode hex="0394"/>
  <outline>
    <contour>
      <point x="506" y="668" type="line"/>
      <point x="557" y="668" type="line"/>
      <point x="861" y="0" type="line"/>
      <point x="1053" y="0" type="line"/>
      <point x="686" y="777" type="line"/>
      <point x="377" y="777" type="line"/>
      <point x="10" y="0" type="line"/>
      <point x="201" y="0" type="line"/>
    </contour>
    <contour>
      <point x="854" y="110" type="line"/>
      <point x="198" y="110" type="line" smooth="yes"/>
      <point x="198" y="110"/>
      <point x="148" y="0"/>
      <point x="148" y="0" type="curve" smooth="yes"/>
      <point x="904" y="0" type="line"/>
    </contour>
  </outline>
</glyph>
<glyph name="Epsilon" format="1">
  <advance width="815"/>
  <unicode hex="0395"/>
  <outline>
    <contour>
      <point x="90" y="0" type="line"/>
      <point x="775" y="0" type="line"/>
      <point x="775" y="110" type="line"/>
      <point x="268" y="110" type="line"/>
      <point x="268" y="333" type="line"/>
      <point x="716" y="333" type="line"/>
      <point x="716" y="442" type="line"/>
      <point x="268" y="442" type="line"/>
      <point x="268" y="668" type="line"/>
      <point x="745" y="668" type="line"/>
      <point x="745" y="777" type="line"/>
      <point x="90" y="777" type="line"/>
    </contour>
  </outline>
</glyph>
<glyph name="Zeta" format="1">
  <advance width="818"/>
  <unicode hex="0396"/>
  <outline>
    <contour>
      <point x="798" y="110" type="line"/>
      <point x="235" y="110" type="line"/>
      <point x="798" y="658" type="line"/>
      <point x="798" y="777" type="line"/>
      <point x="20" y="777" type="line"/>
      <point x="20" y="668" type="line"/>
      <point x="583" y="668" type="line"/>
      <point x="20" y="120" type="line"/>
      <point x="20" y="0" type="line"/>
      <point x="798" y="0" type="line"/>
    </contour>
  </outline>
</glyph>
<glyph name="Theta" format="1">
  <advance width="1110"/>
  <unicode hex="0398"/>
  <outline>
    <contour>
      <point x="60" y="389" type="curve" smooth="yes"/>
      <point x="60" y="155"/>
      <point x="255" y="-13"/>
      <point x="555" y="-13" type="curve" smooth="yes"/>
      <point x="855" y="-13"/>
      <point x="1050" y="155"/>
      <point x="1050" y="389" type="curve" smooth="yes"/>
      <point x="1050" y="623"/>
      <point x="855" y="791"/>
      <point x="555" y="791" type="curve" smooth="yes"/>
      <point x="255" y="791"/>
      <point x="60" y="623"/>
    </contour>
    <contour>
      <point x="245" y="389" type="curve" smooth="yes"/>
      <point x="245" y="542"/>
      <point x="339" y="668"/>
      <point x="555" y="668" type="curve" smooth="yes"/>
      <point x="771" y="668"/>
      <point x="865" y="542"/>
      <point x="865" y="389" type="curve" smooth="yes"/>
      <point x="865" y="236"/>
      <point x="771" y="110"/>
      <point x="555" y="110" type="curve" smooth="yes"/>
      <point x="339" y="110"/>
      <point x="245" y="236"/>
    </contour>
    <contour>
      <point x="218" y="333" type="line"/>
      <point x="878" y="333" type="line"/>
      <point x="878" y="333"/>
      <point x="878" y="442"/>
      <point x="878" y="442" type="curve"/>
      <point x="218" y="442" type="line"/>
    </contour>
  </outline>
</glyph>
<glyph name="Lambda" format="1">
  <advance width="1063"/>
  <unicode hex="039B"/>
  <outline>
    <contour>
      <point x="506" y="668" type="line"/>
      <point x="557" y="668" type="line"/>
      <point x="861" y="0" type="line"/>
      <point x="1053" y="0" type="line"/>
      <point x="686" y="777" type="line"/>
      <point x="377" y="777" type="line"/>
      <point x="10" y="0" type="line"/>
      <point x="201" y="0" type="line"/>
    </contour>
  </outline>
</glyph>
<glyph name="Mu" format="1">
  <advance width="1312"/>
  <unicode hex="039C"/>
  <outline>
    <contour>
      <point x="656" y="170" type="line"/>
      <point x="397" y="777" type="line"/>
      <point x="90" y="777" type="line"/>
      <point x="90" y="0" type="line"/>
      <point x="268" y="0" type="line"/>
      <point x="268" y="668" type="line"/>
      <point x="569" y="0" type="line"/>
      <point x="743" y="0" type="line"/>
      <point x="1044" y="668" type="line"/>
      <point x="1044" y="0" type="line"/>
      <point x="1222" y="0" type="line"/>
      <point x="1222" y="777" type="line"/>
      <point x="915" y="777" type="line"/>
    </contour>
  </outline>
</glyph>
<glyph name="Xi" format="1">
  <advance width="955"/>
  <unicode hex="039E"/>
  <outline>
    <contour>
      <point x="915" y="0" type="line"/>
      <point x="915" y="109" type="line"/>
      <point x="40" y="109" type="line"/>
      <point x="40" y="0" type="line"/>
    </contour>
    <contour>
      <point x="886" y="667" type="line"/>
      <point x="886" y="777" type="line"/>
      <point x="69" y="777" type="line"/>
      <point x="69" y="667" type="line"/>
    </contour>
    <contour>
      <point x="858" y="333" type="line"/>
      <point x="858" y="442" type="line"/>
      <point x="97" y="442" type="line"/>
      <point x="97" y="333" type="line"/>
    </contour>
    <contour>
      <point x="389" y="767" type="line"/>
      <point x="389" y="10" type="line"/>
      <point x="567" y="10" type="line"/>
      <point x="567" y="767" type="line"/>
    </contour>
  </outline>
</glyph>
<glyph name="Pi" format="1">
  <advance width="966"/>
  <unicode hex="03A0"/>
  <outline>
    <contour>
      <point x="678" y="0" type="line"/>
      <point x="856" y="0" type="line"/>
      <point x="856" y="667" type="line"/>
      <point x="956" y="667" type="line"/>
      <point x="956" y="777" type="line"/>
      <point x="10" y="777" type="line"/>
      <point x="10" y="667" type="line"/>
      <point x="110" y="667" type="line"/>
      <point x="110" y="0" type="line"/>
      <point x="288" y="0" type="line"/>
      <point x="288" y="667" type="line"/>
      <point x="678" y="667" type="line"/>
    </contour>
  </outline>
</glyph>
<glyph name="Rho" format="1">
  <advance width="862"/>
  <unicode hex="03A1"/>
  <outline>
    <contour>
      <point x="90" y="777" type="line"/>
      <point x="456" y="777" type="line" smooth="yes"/>
      <point x="722" y="777"/>
      <point x="842" y="703"/>
      <point x="842" y="555" type="curve" smooth="yes"/>
      <point x="842" y="407"/>
      <point x="722" y="333"/>
      <point x="456" y="333" type="curve" smooth="yes"/>
      <point x="268" y="333" type="line"/>
      <point x="268" y="0" type="line"/>
      <point x="90" y="0" type="line"/>
    </contour>
    <contour>
      <point x="268" y="442" type="line"/>
      <point x="466" y="442" type="line" smooth="yes"/>
      <point x="580" y="442"/>
      <point x="657" y="475"/>
      <point x="657" y="555" type="curve" smooth="yes"/>
      <point x="657" y="635"/>
      <point x="580" y="668"/>
      <point x="466" y="668" type="curve" smooth="yes"/>
      <point x="268" y="668" type="line"/>
    </contour>
  </outline>
</glyph>
<glyph name="Upsilon" format="1">
  <advance width="982"/>
  <unicode hex="03A5"/>
  <outline>
    <contour>
      <point x="972" y="777" type="line"/>
      <point x="755" y="777" type="line"/>
      <point x="491" y="485" type="line"/>
      <point x="227" y="777" type="line"/>
      <point x="10" y="777" type="line"/>
      <point x="402" y="365" type="line"/>
      <point x="402" y="0" type="line"/>
      <point x="580" y="0" type="line"/>
      <point x="580" y="365" type="line"/>
    </contour>
  </outline>
</glyph>
<glyph name="Phi" format="1">
  <advance width="1170"/>
  <unicode hex="03A6"/>
  <outline>
    <contour>
      <point x="60" y="389" type="curve" smooth="yes"/>
      <point x="60" y="175"/>
      <point x="265" y="62"/>
      <point x="585" y="62" type="curve" smooth="yes"/>
      <point x="905" y="62"/>
      <point x="1110" y="175"/>
      <point x="1110" y="389" type="curve" smooth="yes"/>
      <point x="1110" y="603"/>
      <point x="905" y="716"/>
      <point x="585" y="716" type="curve" smooth="yes"/>
      <point x="265" y="716"/>
      <point x="60" y="603"/>
    </contour>
    <contour>
      <point x="245" y="389" type="curve" smooth="yes"/>
      <point x="245" y="522"/>
      <point x="349" y="618"/>
      <point x="585" y="618" type="curve" smooth="yes"/>
      <point x="821" y="618"/>
      <point x="925" y="522"/>
      <point x="925" y="389" type="curve" smooth="yes"/>
      <point x="925" y="256"/>
      <point x="821" y="160"/>
      <point x="585" y="160" type="curve" smooth="yes"/>
      <point x="349" y="160"/>
      <point x="245" y="256"/>
    </contour>
    <contour>
      <point x="495" y="777" type="line"/>
      <point x="495" y="0" type="line"/>
      <point x="673" y="0" type="line"/>
      <point x="673" y="777" type="line"/>
    </contour>
  </outline>
</glyph>
<glyph name="Psi" format="1">
  <advance width="1190"/>
  <unicode hex="03A8"/>
  <outline>
    <contour>
      <point x="922" y="777" type="line"/>
      <point x="922" y="469" type="line" smooth="yes"/>
      <point x="922" y="336"/>
      <point x="831" y="240"/>
      <point x="595" y="240" type="curve" smooth="yes"/>
      <point x="359" y="240"/>
      <point x="268" y="336"/>
      <point x="268" y="469" type="curve" smooth="yes"/>
      <point x="268" y="777" type="line"/>
      <point x="90" y="777" type="line"/>
      <point x="90" y="469" type="line" smooth="yes"/>
      <point x="90" y="255"/>
      <point x="275" y="142"/>
      <point x="595" y="142" type="curve" smooth="yes"/>
      <point x="915" y="142"/>
      <point x="1100" y="255"/>
      <point x="1100" y="469" type="curve" smooth="yes"/>
      <point x="1100" y="777" type="line"/>
    </contour>
    <contour>
      <point x="505" y="777" type="line"/>
      <point x="505" y="0" type="line"/>
      <point x="683" y="0" type="line"/>
      <point x="683" y="777" type="line"/>
    </contour>
  </outline>
</glyph>
<glyph name="Upsilondieresis" format="1">
  <advance width="982"/>
  <unicode hex="03AB"/>
  <outline>
    <contour>
      <point x="972" y="777" type="line"/>
      <point x="755" y="777" type="line"/>
      <point x="491" y="485" type="line"/>
      <point x="227" y="777" type="line"/>
      <point x="10" y="777" type="line"/>
      <point x="402" y="365" type="line"/>
      <point x="402" y="0" type="line"/>
      <point x="580" y="0" type="line"/>
      <point x="580" y="365" type="line"/>
    </contour>
    <contour>
      <point x="302" y="869" type="line"/>
      <point x="440" y="869" type="line"/>
      <point x="440" y="1019" type="line"/>
      <point x="302" y="1019" type="line"/>
    </contour>
    <contour>
      <point x="542" y="869" type="line"/>
      <point x="680" y="869" type="line"/>
      <point x="680" y="1019" type="line"/>
      <point x="542" y="1019" type="line"/>
    </contour>
  </outline>
</glyph>
<glyph name="theta" format="1">
  <advance width="813"/>
  <unicode hex="03B8"/>
  <outline>
    <contour>
      <point x="60" y="389" type="curve" smooth="yes"/>
      <point x="60" y="156"/>
      <point x="175" y="-13"/>
      <point x="407" y="-13" type="curve" smooth="yes"/>
      <point x="628" y="-13"/>
      <point x="753" y="156"/>
      <point x="753" y="389" type="curve" smooth="yes"/>
      <point x="753" y="623"/>
      <point x="628" y="791"/>
      <point x="407" y="791" type="curve" smooth="yes"/>
      <point x="185" y="791"/>
      <point x="60" y="623"/>
    </contour>
    <contour>
      <point x="225" y="389" type="curve" smooth="yes"/>
      <point x="225" y="542"/>
      <point x="266" y="668"/>
      <point x="407" y="668" type="curve" smooth="yes"/>
      <point x="547" y="668"/>
      <point x="588" y="542"/>
      <point x="588" y="389" type="curve" smooth="yes"/>
      <point x="588" y="237"/>
      <point x="547" y="110"/>
      <point x="407" y="110" type="curve" smooth="yes"/>
      <point x="266" y="110"/>
      <point x="225" y="237"/>
    </contour>
    <contour>
      <point x="208" y="338" type="line"/>
      <point x="638" y="338" type="line"/>
      <point x="638" y="338"/>
      <point x="638" y="433"/>
      <point x="638" y="433" type="curve"/>
      <point x="208" y="433" type="line"/>
    </contour>
  </outline>
</glyph>
<glyph name="kappa" format="1">
  <advance width="708"/>
  <unicode hex="03BA"/>
  <outline>
    <contour>
      <point x="90" y="0" type="line"/>
      <point x="255" y="0" type="line"/>
      <point x="255" y="138" type="line"/>
      <point x="330" y="210" type="line"/>
      <point x="528" y="0" type="line"/>
      <point x="738" y="0" type="line"/>
      <point x="424" y="298" type="line"/>
      <point x="698" y="555" type="line"/>
      <point x="498" y="555" type="line"/>
      <point x="255" y="306" type="line"/>
      <point x="255" y="555" type="line"/>
      <point x="90" y="555" type="line"/>
    </contour>
  </outline>
</glyph>
<glyph name="pi" format="1">
  <advance width="881"/>
  <unicode hex="03C0"/>
  <outline>
    <contour>
      <point x="40" y="458" type="line"/>
      <point x="516" y="458" type="line"/>
      <point x="516" y="194" type="line" smooth="yes"/>
      <point x="516" y="51"/>
      <point x="578" y="-13"/>
      <point x="702" y="-13" type="curve" smooth="yes"/>
      <point x="815" y="-13"/>
      <point x="861" y="69"/>
      <point x="861" y="69" type="curve"/>
      <point x="829" y="167" type="line"/>
      <point x="829" y="167"/>
      <point x="794" y="97"/>
      <point x="746" y="97" type="curve" smooth="yes"/>
      <point x="700" y="97"/>
      <point x="679" y="130"/>
      <point x="679" y="206" type="curve" smooth="yes"/>
      <point x="679" y="458" type="line"/>
      <point x="812" y="458" type="line"/>
      <point x="812" y="555" type="line"/>
      <point x="40" y="555" type="line"/>
    </contour>
    <contour>
      <point x="131" y="0" type="line"/>
      <point x="298" y="0" type="line"/>
      <point x="324" y="497" type="line"/>
      <point x="186" y="499" type="line"/>
    </contour>
  </outline>
</glyph>
<glyph name="upsilon" format="1">
  <advance width="779"/>
  <unicode hex="03C5"/>
  <outline>
    <contour>
      <point x="403" y="97" type="curve"/>
      <point x="284" y="97"/>
      <point x="255" y="187"/>
      <point x="255" y="278" type="curve" smooth="yes"/>
      <point x="255" y="555" type="line"/>
      <point x="90" y="555" type="line"/>
      <point x="90" y="278" type="line" smooth="yes"/>
      <point x="90" y="115"/>
      <point x="188" y="-13"/>
      <point x="403" y="-13" type="curve" smooth="yes"/>
      <point x="633" y="-13"/>
      <point x="719" y="147"/>
      <point x="719" y="336" type="curve" smooth="yes"/>
      <point x="719" y="411"/>
      <point x="705" y="488"/>
      <point x="685" y="555" type="curve"/>
      <point x="525" y="555" type="line"/>
      <point x="545" y="491"/>
      <point x="562" y="402"/>
      <point x="562" y="320" type="curve" smooth="yes"/>
      <point x="562" y="182"/>
      <point x="515" y="97"/>
    </contour>
  </outline>
</glyph>
<glyph name="phi" format="1">
  <advance width="997"/>
  <unicode hex="03C6"/>
  <outline>
    <contour>
      <point x="233" y="308" type="curve" smooth="yes"/>
      <point x="233" y="406"/>
      <point x="288" y="459"/>
      <point x="357" y="459" type="curve" smooth="yes"/>
      <point x="369" y="459"/>
      <point x="382" y="457"/>
      <point x="395" y="453" type="curve"/>
      <point x="365" y="561" type="line"/>
      <point x="348" y="565"/>
      <point x="331" y="567"/>
      <point x="314" y="567" type="curve" smooth="yes"/>
      <point x="184" y="567"/>
      <point x="60" y="459"/>
      <point x="60" y="318" type="curve" smooth="yes"/>
      <point x="60" y="100"/>
      <point x="265" y="-13"/>
      <point x="499" y="-13" type="curve" smooth="yes"/>
      <point x="740" y="-13"/>
      <point x="937" y="110"/>
      <point x="937" y="318" type="curve" smooth="yes"/>
      <point x="937" y="472"/>
      <point x="826" y="568"/>
      <point x="683" y="568" type="curve" smooth="yes"/>
      <point x="545" y="568"/>
      <point x="415" y="486"/>
      <point x="415" y="298" type="curve" smooth="yes"/>
      <point x="415" y="-223" type="line"/>
      <point x="580" y="-223" type="line"/>
      <point x="580" y="328" type="line" smooth="yes"/>
      <point x="580" y="408"/>
      <point x="606" y="468"/>
      <point x="676" y="468" type="curve" smooth="yes"/>
      <point x="754" y="468"/>
      <point x="779" y="388"/>
      <point x="779" y="328" type="curve" smooth="yes"/>
      <point x="779" y="190"/>
      <point x="695" y="82"/>
      <point x="499" y="82" type="curve" smooth="yes"/>
      <point x="325" y="82"/>
      <point x="233" y="197"/>
    </contour>
  </outline>
</glyph>
<glyph name="psi" format="1">
  <advance width="979"/>
  <unicode hex="03C8"/>
  <outline>
    <contour>
      <point x="503" y="92" type="curve"/>
      <point x="314" y="92"/>
      <point x="255" y="182"/>
      <point x="255" y="273" type="curve" smooth="yes"/>
      <point x="255" y="555" type="line"/>
      <point x="90" y="555" type="line"/>
      <point x="90" y="278" type="line" smooth="yes"/>
      <point x="90" y="115"/>
      <point x="218" y="-13"/>
      <point x="503" y="-13" type="curve" smooth="yes"/>
      <point x="803" y="-13"/>
      <point x="919" y="147"/>
      <point x="919" y="336" type="curve" smooth="yes"/>
      <point x="919" y="411"/>
      <point x="905" y="488"/>
      <point x="885" y="555" type="curve"/>
      <point x="725" y="555" type="line"/>
      <point x="745" y="491"/>
      <point x="762" y="402"/>
      <point x="762" y="320" type="curve" smooth="yes"/>
      <point x="762" y="172"/>
      <point x="685" y="92"/>
    </contour>
    <contour>
      <point x="420" y="-223" type="line"/>
      <point x="585" y="-223" type="line"/>
      <point x="585" y="685" type="line"/>
      <point x="420" y="685" type="line"/>
    </contour>
  </outline>
</glyph>
<glyph name="quoteleft" format="1">
  <advance width="288"/>
  <unicode hex="2018"/>
  <outline>
    <contour>
      <point x="50" y="481" type="line"/>
      <point x="228" y="481" type="line"/>
      <point x="228" y="631" type="line"/>
      <point x="127" y="631" type="line"/>
      <point x="137" y="728"/>
      <point x="249" y="781"/>
      <point x="249" y="781" type="curve"/>
      <point x="148" y="807" type="line"/>
      <point x="148" y="807"/>
      <point x="50" y="729"/>
      <point x="50" y="606" type="curve" smooth="yes"/>
    </contour>
  </outline>
</glyph>
<glyph name="quoteright" format="1">
  <advance width="288"/>
  <unicode hex="2019"/>
  <outline>
    <contour>
      <point x="238" y="807" type="line"/>
      <point x="60" y="807" type="line"/>
      <point x="60" y="657" type="line"/>
      <point x="161" y="657" type="line"/>
      <point x="151" y="560"/>
      <point x="39" y="507"/>
      <point x="39" y="507" type="curve"/>
      <point x="140" y="481" type="line"/>
      <point x="140" y="481"/>
      <point x="238" y="559"/>
      <point x="238" y="682" type="curve" smooth="yes"/>
    </contour>
  </outline>
</glyph>
<glyph name="daggerdbl" format="1">
  <advance width="525"/>
  <unicode hex="2021"/>
  <outline>
    <contour>
      <point x="20" y="0" type="line"/>
      <point x="180" y="0" type="line"/>
      <point x="195" y="-223" type="line"/>
      <point x="330" y="-223" type="line"/>
      <point x="345" y="0" type="line"/>
      <point x="505" y="0" type="line"/>
      <point x="505" y="97" type="line"/>
      <point x="345" y="97" type="line"/>
      <point x="345" y="458" type="line"/>
      <point x="505" y="458" type="line"/>
      <point x="505" y="554" type="line"/>
      <point x="345" y="554" type="line"/>
      <point x="330" y="776" type="line"/>
      <point x="195" y="776" type="line"/>
      <point x="180" y="554" type="line"/>
      <point x="20" y="554" type="line"/>
      <point x="20" y="458" type="line"/>
      <point x="180" y="458" type="line"/>
      <point x="180" y="97" type="line"/>
      <point x="20" y="97" type="line"/>
    </contour>
  </outline>
</glyph>
<glyph name="ellipsis" format="1">
  <advance width="894"/>
  <unicode hex="2026"/>
  <outline>
    <contour>
      <point x="60" y="0" type="line"/>
      <point x="238" y="0" type="line"/>
      <point x="238" y="150" type="line"/>
      <point x="60" y="150" type="line"/>
    </contour>
    <contour>
      <point x="358" y="0" type="line"/>
      <point x="536" y="0" type="line"/>
      <point x="536" y="140" type="line"/>
      <point x="358" y="140" type="line"/>
    </contour>
    <contour>
      <point x="656" y="0" type="line"/>
      <point x="834" y="0" type="line"/>
      <point x="834" y="130" type="line"/>
      <point x="656" y="130" type="line"/>
    </contour>
  </outline>
</glyph>
<glyph name="fraction" format="1">
  <advance width="459"/>
  <unicode hex="2044"/>
  <outline>
    <contour>
      <point x="411" y="703" type="line" name="hr00"/>
      <point x="0" y="-61" type="line"/>
      <point x="46" y="-84" type="line"/>
      <point x="459" y="679" type="line"/>
    </contour>
  </outline>
</glyph>
<glyph name="f_i" format="1">
  <advance width="764"/>
  <unicode hex="FB01"/>
  <outline>
    <contour>
      <point x="10" y="555" type="line"/>
      <point x="10" y="458" type="line"/>
      <point x="138" y="458" type="line"/>
      <point x="138" y="0" type="line"/>
      <point x="303" y="0" type="line"/>
      <point x="303" y="458" type="line"/>
      <point x="502" y="458" type="line"/>
      <point x="502" y="0" type="line"/>
      <point x="667" y="0" type="line"/>
      <point x="667" y="555" type="line"/>
      <point x="293" y="555" type="line"/>
      <point x="293" y="555"/>
      <point x="277" y="569"/>
      <point x="277" y="594" type="curve" smooth="yes"/>
      <point x="277" y="629"/>
      <point x="297" y="686"/>
      <point x="399" y="686" type="curve" smooth="yes"/>
      <point x="551" y="686"/>
      <point x="552" y="558"/>
      <point x="552" y="558" type="curve"/>
      <point x="724" y="602" type="line"/>
      <point x="724" y="602"/>
      <point x="671" y="791"/>
      <point x="391" y="791" type="curve" smooth="yes"/>
      <point x="211" y="791"/>
      <point x="120" y="705"/>
      <point x="120" y="628" type="curve" smooth="yes"/>
      <point x="120" y="576"/>
      <point x="157" y="556"/>
      <point x="159" y="555" type="curve"/>
    </contour>
  </outline>
</glyph>
<glyph name="Pi.ss01" format="1">
  <advance width="1006"/>
  <outline>
    <contour>
      <point x="738" y="0" type="line"/>
      <point x="916" y="0" type="line"/>
      <point x="916" y="777" type="line"/>
      <point x="90" y="777" type="line"/>
      <point x="90" y="0" type="line"/>
      <point x="268" y="0" type="line"/>
      <point x="268" y="667" type="line"/>
      <point x="738" y="667" type="line"/>
    </contour>
  </outline>
</glyph>
<glyph name="dieresis.case" format="1">
  <advance width="358"/>
  <outline>
    <contour>
      <point x="-10" y="627" type="line"/>
      <point x="128" y="627" type="line"/>
      <point x="128" y="777" type="line"/>
      <point x="-10" y="777" type="line"/>
    </contour>
    <contour>
      <point x="230" y="627" type="line"/>
      <point x="368" y="627" type="line"/>
      <point x="368" y="777" type="line"/>
      <point x="230" y="777" type="line"/>
    </contour>
    <contour>
      <point x="179" y="613" type="move" name="_top"/>
    </contour>
  </outline>
</glyph>
<glyph name="four.susp_prop" format="1">
  <advance width="880"/>
  <outline>
    <contour>
      <point x="20" y="0" type="line"/>
      <point x="505" y="0" type="line"/>
      <point x="505" y="-223" type="line"/>
      <point x="673" y="-223" type="line"/>
      <point x="673" y="0" type="line"/>
      <point x="847" y="0" type="line"/>
      <point x="847" y="97" type="line"/>
      <point x="673" y="97" type="line"/>
      <point x="673" y="555" type="line"/>
      <point x="473" y="555" type="line"/>
      <point x="20" y="133" type="line"/>
    </contour>
    <contour>
      <point x="505" y="416" type="line"/>
      <point x="505" y="97" type="line"/>
      <point x="160" y="97" type="line"/>
    </contour>
  </outline>
</glyph>
<glyph name="nine.susp_prop" format="1">
  <advance width="880"/>
  <outline>
    <contour>
      <point x="626" y="306" type="curve"/>
      <point x="626" y="306"/>
      <point x="587" y="458"/>
      <point x="434" y="458" type="curve" smooth="yes"/>
      <point x="322" y="458"/>
      <point x="243" y="391"/>
      <point x="243" y="306" type="curve" smooth="yes"/>
      <point x="243" y="211"/>
      <point x="308" y="141"/>
      <point x="415" y="141" type="curve" smooth="yes"/>
      <point x="600" y="141"/>
      <point x="626" y="306"/>
    </contour>
    <contour>
      <point x="407" y="-126" type="curve" smooth="yes"/>
      <point x="561" y="-126"/>
      <point x="651" y="13"/>
      <point x="645" y="185" type="curve"/>
      <point x="645" y="185"/>
      <point x="571" y="31"/>
      <point x="353" y="31" type="curve" smooth="yes"/>
      <point x="211" y="31"/>
      <point x="67" y="115"/>
      <point x="67" y="287" type="curve" smooth="yes"/>
      <point x="67" y="453"/>
      <point x="225" y="568"/>
      <point x="433" y="568" type="curve" smooth="yes"/>
      <point x="684" y="568"/>
      <point x="820" y="400"/>
      <point x="820" y="166" type="curve" smooth="yes"/>
      <point x="820" y="-67"/>
      <point x="674" y="-236"/>
      <point x="400" y="-236" type="curve" smooth="yes"/>
      <point x="100" y="-236"/>
      <point x="53" y="-42"/>
      <point x="53" y="-42" type="curve"/>
      <point x="237" y="8" type="line"/>
      <point x="237" y="8"/>
      <point x="250" y="-126"/>
    </contour>
  </outline>
</glyph>
